<svg xmlns="http://www.w3.org/2000/svg" viewBox="0 0 512 512" width="512" height="512">
  <path fill="#FFFFFF" d="M 256,230 C 164,230 138,296 138,358 C 138,420 189,430 256,430 C 323,430 374,420 374,358 C 374,296 348,230 256,230 Z M 82,216 C 72,242 86,275 112,290 C 138,304 167,294 177,268 C 187,242 173,209 147,195 C 121,180 92,190 82,216 Z M 180,128 C 166,151 176,192 201,218 C 227,243 259,244 273,221 C 287,198 277,157 251,131 C 226,106 194,105 180,128 Z M 332,128 C 318,105 286,106 261,131 C 235,157 225,198 239,221 C 253,244 285,243 311,218 C 336,192 346,151 332,128 Z M 430,216 C 420,190 391,180 365,195 C 339,209 325,242 335,268 C 345,294 374,304 400,290 C 426,275 440,242 430,216 Z" />
</svg>
